<?xml version="1.0" encoding="UTF-8" standalone="no"?>
<!-- Generator: Adobe Illustrator 18.0.0, SVG Export Plug-In . SVG Version: 6.00 Build 0)  -->
<svg xmlns:osb="http://www.openswatchbook.org/uri/2009/osb" xmlns:dc="http://purl.org/dc/elements/1.1/" xmlns:cc="http://creativecommons.org/ns#" xmlns:rdf="http://www.w3.org/1999/02/22-rdf-syntax-ns#" xmlns:svg="http://www.w3.org/2000/svg" xmlns="http://www.w3.org/2000/svg" xmlns:sodipodi="http://sodipodi.sourceforge.net/DTD/sodipodi-0.dtd" xmlns:inkscape="http://www.inkscape.org/namespaces/inkscape" version="1.1" id="Capa_1" x="0px" y="0px" viewBox="0 0 443.33 443.33" style="enable-background:new 0 0 443.33 443.33;" xml:space="preserve" inkscape:version="0.91 r13725" sodipodi:docname="seatchartjslogo.svg"><metadata id="metadata54"><rdf:RDF><cc:Work rdf:about=""><dc:format>image/svg+xml</dc:format><dc:type rdf:resource="http://purl.org/dc/dcmitype/StillImage"/></cc:Work></rdf:RDF></metadata><defs id="defs52"><linearGradient id="linearGradient4186" osb:paint="solid"><stop style="stop-color:#008080;stop-opacity:1;" offset="0" id="stop4188"/></linearGradient><inkscape:path-effect effect="spiro" id="path-effect4184" is_visible="true"/></defs><sodipodi:namedview pagecolor="#ffffff" bordercolor="#666666" borderopacity="1" objecttolerance="10" gridtolerance="10" guidetolerance="10" inkscape:pageopacity="0" inkscape:pageshadow="2" inkscape:window-width="1366" inkscape:window-height="715" id="namedview50" showgrid="false" inkscape:zoom="1.0646697" inkscape:cx="-102.22554" inkscape:cy="236.88586" inkscape:window-x="-8" inkscape:window-y="-8" inkscape:window-maximized="1" inkscape:current-layer="Capa_1"/><g id="_x33_0-Movie_Theatre" style="fill:#008080"><path d="M78.88,222.659V106.542h285.57v116.116h17.891c0.671,0,1.331,0.04,1.986,0.102V91.746c0-2.805-2.274-5.081-5.082-5.081   H64.085c-2.807,0-5.082,2.276-5.082,5.081v131.015c0.655-0.061,1.315-0.102,1.986-0.102H78.88z" id="path4" style="fill:#008080"/><path d="M143.813,234.089H60.989c-5.489,0-9.938,4.45-9.938,9.938v34.785h69.467c9.991,0,18.766,5.295,23.673,13.227   c2.377-3.843,5.669-7.058,9.561-9.362v-38.649C153.751,238.539,149.302,234.089,143.813,234.089z" id="path8" style="fill:#008080"/><path d="M170.313,244.027v34.785h102.703v-34.785c0-5.488-4.45-9.938-9.94-9.938h-82.822   C174.764,234.089,170.313,238.539,170.313,244.027z" id="path10" style="fill:#008080"/><path d="M392.279,278.813v-34.785c0-5.488-4.449-9.938-9.939-9.938h-82.823c-5.489,0-9.938,4.45-9.938,9.938v38.649   c3.892,2.305,7.184,5.52,9.56,9.362c4.908-7.932,13.682-13.227,23.673-13.227H392.279z" id="path12" style="fill:#008080"/><path d="M120.518,293.721H12.911C5.779,293.721,0,299.502,0,306.632v50.033h133.43v-50.033   C133.43,299.502,127.649,293.721,120.518,293.721z" id="path14" style="fill:#008080"/><path d="M275.466,293.721H167.864c-7.133,0-12.914,5.781-12.914,12.911v50.033h133.43v-50.033   C288.38,299.502,282.599,293.721,275.466,293.721z" id="path16" style="fill:#008080"/><path d="M430.418,293.721H322.813c-7.132,0-12.911,5.781-12.911,12.911v50.033H443.33v-50.033   C443.33,299.502,437.551,293.721,430.418,293.721z" id="path18" style="fill:#008080"/></g><g id="g20"/><g id="g22"/><g id="g24"/><g id="g26"/><g id="g28"/><g id="g30"/><g id="g32"/><g id="g34"/><g id="g36"/><g id="g38"/><g id="g40"/><g id="g42"/><g id="g44"/><g id="g46"/><g id="g48"/><g style="font-style:normal;font-weight:normal;font-size:40px;line-height:125%;font-family:sans-serif;letter-spacing:0px;word-spacing:0px;fill:#000000;fill-opacity:1;stroke:none;stroke-width:1px;stroke-linecap:butt;stroke-linejoin:miter;stroke-opacity:1" id="text4158"><path d="m 123.92139,134.25763 q 0,1.19 -0.84,2.03 -0.805,0.805 -2.03,0.805 l -14.035,0 0,2.975 13.16,0 q 1.47,0 2.52,1.05 1.05,1.015 1.05,2.485 l 0,7.91 q 0,1.47 -1.015,2.485 -1.015,0.98 -2.485,0.98 l -16.17,0 q -1.26,0 -2.1,-0.77 -0.84,-0.805 -0.84,-2.065 0,-1.26 0.84,-2.135 0.84,-0.91 2.1,-0.91 l 13.755,0 0,-3.5 -13.195,0 q -1.54,0 -2.52,-0.945 -0.98,-0.98 -0.98,-2.52 l 0,-7.385 q 0,-1.4 1.015,-2.45 1.015,-1.085 2.415,-1.085 l 16.415,0 q 1.225,0 2.065,0.91 0.875,0.91 0.875,2.135 z" style="font-style:normal;font-variant:normal;font-weight:800;font-stretch:normal;font-size:35px;font-family:DBXLNightfever;-inkscape-font-specification:'DBXLNightfever Ultra-Bold'" id="path4164"/><path d="m 147.3096,148.74763 -14.98,0 0,1.365 12.46,0 q 1.085,0 1.75,0.665 0.665,0.665 0.665,1.785 0,1.085 -0.665,1.75 -0.665,0.665 -1.75,0.665 l -14.42,0 q -1.4,0 -2.275,-0.875 -0.875,-0.875 -0.875,-2.275 l 0,-10.885 q 0,-1.26 0.91,-2.205 0.91,-0.98 2.17,-0.98 l 13.86,0 q 1.33,0 2.24,0.91 0.91,0.875 0.91,2.205 l 0,7.875 z m -5.18,-4.025 0,-2.1 -9.8,0 0,2.1 9.8,0 z" style="font-style:normal;font-variant:normal;font-weight:800;font-stretch:normal;font-size:35px;font-family:DBXLNightfever;-inkscape-font-specification:'DBXLNightfever Ultra-Bold'" id="path4166"/><path d="m 170.89358,154.97763 -16.94,0 q -1.4,0 -2.275,-0.875 -0.875,-0.875 -0.875,-2.275 l 0,-10.85 q 0,-1.26 0.91,-2.205 0.91,-0.98 2.17,-0.98 l 17.01,0 0,17.185 z m -5.18,-5.18 0,-6.825 -9.8,0 0,6.825 9.8,0 z" style="font-style:normal;font-variant:normal;font-weight:800;font-stretch:normal;font-size:35px;font-family:DBXLNightfever;-inkscape-font-specification:'DBXLNightfever Ultra-Bold'" id="path4168"/><path d="m 188.24757,140.45263 q 0,1.085 -0.735,1.785 -0.735,0.7 -1.855,0.7 l -2.45,0 0,9.59 q 0,1.05 -0.77,1.82 -0.77,0.77 -1.82,0.77 -1.085,0 -1.855,-0.735 -0.735,-0.77 -0.735,-1.855 l 0,-9.59 -2.45,0 q -1.05,0 -1.82,-0.7 -0.77,-0.735 -0.77,-1.785 0,-1.155 0.735,-1.925 0.735,-0.77 1.855,-0.77 l 2.45,0 0,-4.095 q 0,-1.12 0.735,-1.855 0.735,-0.735 1.855,-0.735 1.12,0 1.855,0.735 0.735,0.735 0.735,1.855 l 0,4.095 2.45,0 q 1.05,0 1.82,0.84 0.77,0.805 0.77,1.855 z" style="font-style:normal;font-variant:normal;font-weight:800;font-stretch:normal;font-size:35px;font-family:DBXLNightfever;-inkscape-font-specification:'DBXLNightfever Ultra-Bold'" id="path4170"/><path d="m 209.1453,152.42263 q 0,1.085 -0.77,1.82 -0.735,0.735 -1.82,0.735 l -13.09,0 q -1.4,0 -2.275,-0.875 -0.875,-0.875 -0.875,-2.275 l 0,-10.85 q 0,-1.26 0.91,-2.205 0.91,-0.98 2.17,-0.98 l 13.16,0 q 1.12,0 1.855,0.735 0.735,0.735 0.735,1.855 0,1.085 -0.77,1.855 -0.77,0.735 -1.855,0.735 l -11.095,0 0,6.825 11.13,0 q 1.085,0 1.82,0.77 0.77,0.77 0.77,1.855 z" style="font-style:normal;font-variant:normal;font-weight:800;font-stretch:normal;font-size:35px;font-family:DBXLNightfever;-inkscape-font-specification:'DBXLNightfever Ultra-Bold'" id="path4172"/><path d="m 232.07686,152.63263 q 0,1.05 -0.77,1.82 -0.77,0.77 -1.82,0.77 -1.085,0 -1.855,-0.735 -0.735,-0.77 -0.735,-1.855 l 0,-9.66 -9.8,0 0,9.66 q 0,1.085 -0.735,1.855 -0.735,0.735 -1.82,0.735 -1.12,0 -1.89,-0.735 -0.735,-0.77 -0.735,-1.855 l 0,-18.97 q 0,-1.12 0.735,-1.855 0.735,-0.735 1.855,-0.735 1.12,0 1.855,0.735 0.735,0.735 0.735,1.855 l 0,4.13 11.83,0 q 1.33,0 2.24,0.91 0.91,0.91 0.91,2.205 l 0,11.725 z" style="font-style:normal;font-variant:normal;font-weight:800;font-stretch:normal;font-size:35px;font-family:DBXLNightfever;-inkscape-font-specification:'DBXLNightfever Ultra-Bold'" id="path4174"/><path d="m 255.65921,154.97763 -16.94,0 q -1.4,0 -2.275,-0.875 -0.875,-0.875 -0.875,-2.275 l 0,-10.85 q 0,-1.26 0.91,-2.205 0.91,-0.98 2.17,-0.98 l 17.01,0 0,17.185 z m -5.18,-5.18 0,-6.825 -9.8,0 0,6.825 9.8,0 z" style="font-style:normal;font-variant:normal;font-weight:800;font-stretch:normal;font-size:35px;font-family:DBXLNightfever;-inkscape-font-specification:'DBXLNightfever Ultra-Bold'" id="path4176"/><path d="m 276.86319,142.97263 -12.53,0 0,9.555 q 0,1.05 -0.77,1.82 -0.77,0.77 -1.82,0.77 -1.085,0 -1.855,-0.735 -0.735,-0.77 -0.735,-1.855 l 0,-14.77 14.56,0 q 1.33,0 2.24,0.91 0.91,0.91 0.91,2.205 l 0,2.1 z" style="font-style:normal;font-variant:normal;font-weight:800;font-stretch:normal;font-size:35px;font-family:DBXLNightfever;-inkscape-font-specification:'DBXLNightfever Ultra-Bold'" id="path4178"/><path d="m 292.83741,140.45263 q 0,1.085 -0.735,1.785 -0.735,0.7 -1.855,0.7 l -2.45,0 0,9.59 q 0,1.05 -0.77,1.82 -0.77,0.77 -1.82,0.77 -1.085,0 -1.855,-0.735 -0.735,-0.77 -0.735,-1.855 l 0,-9.59 -2.45,0 q -1.05,0 -1.82,-0.7 -0.77,-0.735 -0.77,-1.785 0,-1.155 0.735,-1.925 0.735,-0.77 1.855,-0.77 l 2.45,0 0,-4.095 q 0,-1.12 0.735,-1.855 0.735,-0.735 1.855,-0.735 1.12,0 1.855,0.735 0.735,0.735 0.735,1.855 l 0,4.095 2.45,0 q 1.05,0 1.82,0.84 0.77,0.805 0.77,1.855 z" style="font-style:normal;font-variant:normal;font-weight:800;font-stretch:normal;font-size:35px;font-family:DBXLNightfever;-inkscape-font-specification:'DBXLNightfever Ultra-Bold'" id="path4180"/><path d="m 312.96514,151.51263 q 0,1.47 -1.015,2.485 -1.015,0.98 -2.485,0.98 l -11.62,0 q -1.155,0 -2.065,-0.84 -0.875,-0.84 -0.875,-1.995 0,-1.33 0.805,-2.17 0.805,-0.875 2.135,-0.875 l 9.24,0 0,-15.085 q 0,-1.26 0.84,-2.1 0.84,-0.84 2.1,-0.84 1.225,0 2.065,0.875 0.875,0.84 0.875,2.065 l 0,17.5 z" style="fill:#008080" id="path4182"/><path d="m 339.04835,134.25763 q 0,1.19 -0.84,2.03 -0.805,0.805 -2.03,0.805 l -14.035,0 0,2.975 13.16,0 q 1.47,0 2.52,1.05 1.05,1.015 1.05,2.485 l 0,7.91 q 0,1.47 -1.015,2.485 -1.015,0.98 -2.485,0.98 l -16.17,0 q -1.26,0 -2.1,-0.77 -0.84,-0.805 -0.84,-2.065 0,-1.26 0.84,-2.135 0.84,-0.91 2.1,-0.91 l 13.755,0 0,-3.5 -13.195,0 q -1.54,0 -2.52,-0.945 -0.98,-0.98 -0.98,-2.52 l 0,-7.385 q 0,-1.4 1.015,-2.45 1.015,-1.085 2.415,-1.085 l 16.415,0 q 1.225,0 2.065,0.91 0.875,0.91 0.875,2.135 z" style="fill:#008080" id="path4184"/></g>
</svg>