<?xml version="1.0" encoding="UTF-8" standalone="no"?>
<!-- Generator: Adobe Illustrator 16.0.0, SVG Export Plug-In . SVG Version: 6.00 Build 0)  -->

<svg
   xmlns:dc="http://purl.org/dc/elements/1.1/"
   xmlns:cc="http://creativecommons.org/ns#"
   xmlns:rdf="http://www.w3.org/1999/02/22-rdf-syntax-ns#"
   xmlns:svg="http://www.w3.org/2000/svg"
   xmlns="http://www.w3.org/2000/svg"
   xmlns:sodipodi="http://sodipodi.sourceforge.net/DTD/sodipodi-0.dtd"
   xmlns:inkscape="http://www.inkscape.org/namespaces/inkscape"
   version="1.1"
   id="Capa_1"
   x="0px"
   y="0px"
   width="123.7px"
   height="123.7px"
   viewBox="0 0 123.7 123.7"
   style="enable-background:new 0 0 123.7 123.7;"
   xml:space="preserve"
   inkscape:version="0.91 r13725"
   sodipodi:docname="bin1.svg"><metadata
     id="metadata43"><rdf:RDF><cc:Work
         rdf:about=""><dc:format>image/svg+xml</dc:format><dc:type
           rdf:resource="http://purl.org/dc/dcmitype/StillImage" /></cc:Work></rdf:RDF></metadata><defs
     id="defs41" /><sodipodi:namedview
     pagecolor="#ffffff"
     bordercolor="#666666"
     borderopacity="1"
     objecttolerance="10"
     gridtolerance="10"
     guidetolerance="10"
     inkscape:pageopacity="0"
     inkscape:pageshadow="2"
     inkscape:window-width="726"
     inkscape:window-height="480"
     id="namedview39"
     showgrid="false"
     inkscape:zoom="1.9078416"
     inkscape:cx="61.849998"
     inkscape:cy="61.849998"
     inkscape:window-x="0"
     inkscape:window-y="0"
     inkscape:window-maximized="0"
     inkscape:current-layer="Capa_1" /><g
     id="g3"
     style="fill:#ffffff"><path
       d="M23.298,44.5c-0.1,0-0.1,0-0.2,0v73.2c0,3.3,2.7,6,6,6h65.5c3.3,0,6-2.7,6-6c0,0-0.1-73.2-0.2-73.2H23.298z M44.499,103   c0,2.801-2.2,5-5,5c-2.8,0-5-2.199-5-5V64.4c0-2.8,2.2-5,5-5c2.8,0,5,2.2,5,5V103z M66.898,103c0,2.801-2.2,5-5,5s-5-2.199-5-5   V64.4c0-2.8,2.2-5,5-5s5,2.2,5,5V103z M89.298,103c0,2.801-2.199,5-5,5c-2.799,0-5-2.199-5-5V64.4c0-2.8,2.201-5,5-5   c2.801,0,5,2.2,5,5V103z"
       id="path5"
       style="fill:#ffffff" /><path
       d="M100.499,20.1h-5.4h-5.4c-1.699,0-3-1.3-3-3V6.2c0-3.4-2.8-6.2-6.199-6.2H43.298c-3.4,0-6.2,2.8-6.2,6.2V17   c0,1.7-1.3,3-3,3h-5.4h-5.4c-3.4,0-6.2,2.8-6.2,6.2v2.1c0,3.4,2.7,6.1,6,6.2c0.1,0,0.1,0,0.2,0h77.1c0.101,0,0.101,0,0.2,0   c3.3-0.1,6-2.8,6-6.2v-2.1C106.698,22.8,103.898,20.1,100.499,20.1z M76.398,20L76.398,20h-28.9l0,0v-6.6c0-1.7,1.4-3.1,3.1-3.1   h22.699c1.701,0,3.101,1.4,3.101,3.1V20z"
       id="path7"
       style="fill:#ffffff" /></g><g
     id="g9" /><g
     id="g11" /><g
     id="g13" /><g
     id="g15" /><g
     id="g17" /><g
     id="g19" /><g
     id="g21" /><g
     id="g23" /><g
     id="g25" /><g
     id="g27" /><g
     id="g29" /><g
     id="g31" /><g
     id="g33" /><g
     id="g35" /><g
     id="g37" /></svg>