<?xml version="1.0" encoding="UTF-8" standalone="no"?>
<!-- Generator: Adobe Illustrator 18.0.0, SVG Export Plug-In . SVG Version: 6.00 Build 0)  -->

<svg
   xmlns:osb="http://www.openswatchbook.org/uri/2009/osb"
   xmlns:dc="http://purl.org/dc/elements/1.1/"
   xmlns:cc="http://creativecommons.org/ns#"
   xmlns:rdf="http://www.w3.org/1999/02/22-rdf-syntax-ns#"
   xmlns:svg="http://www.w3.org/2000/svg"
   xmlns="http://www.w3.org/2000/svg"
   xmlns:sodipodi="http://sodipodi.sourceforge.net/DTD/sodipodi-0.dtd"
   xmlns:inkscape="http://www.inkscape.org/namespaces/inkscape"
   version="1.1"
   id="Capa_1"
   x="0px"
   y="0px"
   viewBox="0 0 443.33 443.33"
   style="enable-background:new 0 0 443.33 443.33;"
   xml:space="preserve"
   inkscape:version="0.91 r13725"
   sodipodi:docname="seatchartjs.svg"><metadata
     id="metadata54"><rdf:RDF><cc:Work
         rdf:about=""><dc:format>image/svg+xml</dc:format><dc:type
           rdf:resource="http://purl.org/dc/dcmitype/StillImage" /></cc:Work></rdf:RDF></metadata><defs
     id="defs52"><linearGradient
       id="linearGradient4186"
       osb:paint="solid"><stop
         style="stop-color:#008080;stop-opacity:1;"
         offset="0"
         id="stop4188" /></linearGradient><inkscape:path-effect
       effect="spiro"
       id="path-effect4184"
       is_visible="true" /></defs><sodipodi:namedview
     pagecolor="#ffffff"
     bordercolor="#666666"
     borderopacity="1"
     objecttolerance="10"
     gridtolerance="10"
     guidetolerance="10"
     inkscape:pageopacity="0"
     inkscape:pageshadow="2"
     inkscape:window-width="1366"
     inkscape:window-height="715"
     id="namedview50"
     showgrid="false"
     inkscape:zoom="1.0646697"
     inkscape:cx="72.946162"
     inkscape:cy="236.88586"
     inkscape:window-x="-8"
     inkscape:window-y="-8"
     inkscape:window-maximized="1"
     inkscape:current-layer="Capa_1" /><g
     id="_x33_0-Movie_Theatre"
     style="fill:#008080"><path
       d="M78.88,222.659V106.542h285.57v116.116h17.891c0.671,0,1.331,0.04,1.986,0.102V91.746c0-2.805-2.274-5.081-5.082-5.081   H64.085c-2.807,0-5.082,2.276-5.082,5.081v131.015c0.655-0.061,1.315-0.102,1.986-0.102H78.88z"
       id="path4"
       style="fill:#008080" /><path
       d="M143.813,234.089H60.989c-5.489,0-9.938,4.45-9.938,9.938v34.785h69.467c9.991,0,18.766,5.295,23.673,13.227   c2.377-3.843,5.669-7.058,9.561-9.362v-38.649C153.751,238.539,149.302,234.089,143.813,234.089z"
       id="path8"
       style="fill:#008080" /><path
       d="M170.313,244.027v34.785h102.703v-34.785c0-5.488-4.45-9.938-9.94-9.938h-82.822   C174.764,234.089,170.313,238.539,170.313,244.027z"
       id="path10"
       style="fill:#008080" /><path
       d="M392.279,278.813v-34.785c0-5.488-4.449-9.938-9.939-9.938h-82.823c-5.489,0-9.938,4.45-9.938,9.938v38.649   c3.892,2.305,7.184,5.52,9.56,9.362c4.908-7.932,13.682-13.227,23.673-13.227H392.279z"
       id="path12"
       style="fill:#008080" /><path
       d="M120.518,293.721H12.911C5.779,293.721,0,299.502,0,306.632v50.033h133.43v-50.033   C133.43,299.502,127.649,293.721,120.518,293.721z"
       id="path14"
       style="fill:#008080" /><path
       d="M275.466,293.721H167.864c-7.133,0-12.914,5.781-12.914,12.911v50.033h133.43v-50.033   C288.38,299.502,282.599,293.721,275.466,293.721z"
       id="path16"
       style="fill:#008080" /><path
       d="M430.418,293.721H322.813c-7.132,0-12.911,5.781-12.911,12.911v50.033H443.33v-50.033   C443.33,299.502,437.551,293.721,430.418,293.721z"
       id="path18"
       style="fill:#008080" /></g><g
     id="g20" /><g
     id="g22" /><g
     id="g24" /><g
     id="g26" /><g
     id="g28" /><g
     id="g30" /><g
     id="g32" /><g
     id="g34" /><g
     id="g36" /><g
     id="g38" /><g
     id="g40" /><g
     id="g42" /><g
     id="g44" /><g
     id="g46" /><g
     id="g48" /><text
     xml:space="preserve"
     style="font-style:normal;font-weight:normal;font-size:40px;line-height:125%;font-family:sans-serif;letter-spacing:0px;word-spacing:0px;fill:#000000;fill-opacity:1;stroke:none;stroke-width:1px;stroke-linecap:butt;stroke-linejoin:miter;stroke-opacity:1"
     x="99.561394"
     y="154.97763"
     id="text4158"
     sodipodi:linespacing="125%"><tspan
       sodipodi:role="line"
       id="tspan4160"
       x="99.561394"
       y="154.97763"
       style="font-style:normal;font-variant:normal;font-weight:800;font-stretch:normal;font-size:35px;font-family:DBXLNightfever;-inkscape-font-specification:'DBXLNightfever Ultra-Bold'">Seatchart<tspan
   style="fill:#008080"
   id="tspan4162">JS</tspan></tspan></text>
<text
     xml:space="preserve"
     style="font-style:normal;font-weight:normal;font-size:40px;line-height:125%;font-family:sans-serif;letter-spacing:0px;word-spacing:0px;fill:#000000;fill-opacity:1;stroke:none;stroke-width:1px;stroke-linecap:butt;stroke-linejoin:miter;stroke-opacity:1"
     x="263.93161"
     y="180.33762"
     id="text4164"
     sodipodi:linespacing="125%"><tspan
       sodipodi:role="line"
       id="tspan4166"
       x="263.93161"
       y="180.33762"
       style="font-style:normal;font-variant:normal;font-weight:normal;font-stretch:normal;font-size:27.5px;font-family:'Airstream NF';-inkscape-font-specification:'Airstream NF'">by Fuex</tspan></text>
</svg>